<?xml version="1.0" encoding="utf-8"?>
<!-- Generator: Adobe Illustrator 16.0.0, SVG Export Plug-In . SVG Version: 6.00 Build 0)  -->
<svg version="1.2" baseProfile="tiny" id="Layer_1" xmlns="http://www.w3.org/2000/svg" xmlns:xlink="http://www.w3.org/1999/xlink"
	 x="0px" y="0px"  viewBox="0 0 3000 3000" xml:space="preserve">
<g>
	<g>
		<path fill="none" d="M1680.557,1001.46c0-7.381-9.656-12.262-26.619-12.262c-12.366,0-24.537,2.881-36.461,8.156
			c15.848,9.187,28.1,13.748,39.99,13.748C1666.771,1011.098,1680.557,1008.346,1680.557,1001.46z"/>
		<path fill="none" d="M1622.652,1446.917c0.248-10.524-10.629-16.571-21.152-16.762c-9.767-0.152-31.215,9.104-56.995,20.942
			c21.062,7.447,41.276,12.114,58.753,12.114C1613.133,1463.217,1622.414,1456.788,1622.652,1446.917z"/>
		<path fill="none" d="M1736.343,1396.669c30.862,3.076,54.323-45.967,14.553-68.747c-20.948-12-49.553-3.429-79.571,12.433
			C1689,1372.631,1710.824,1394.117,1736.343,1396.669z"/>
		<path fill="none" d="M1682.538,2093.45c-3.005-3.058-6.743-5.528-11.262-7.376c-4.49-1.857-9.814-2.786-15.942-2.786h-15.905
			v65.414h15.905c6.128,0,11.447-0.924,15.942-2.771c4.519-1.861,8.257-4.318,11.262-7.39c2.985-3.067,5.186-6.553,6.629-10.448
			c1.447-3.896,2.157-7.934,2.157-12.095c0-4.157-0.71-8.2-2.157-12.101C1687.724,2099.998,1685.523,2096.521,1682.538,2093.45z"/>
		<path fill="none" d="M1219.838,989.026c-25.553,0-40.98,17.624-40.98,40.977c0,24.409,46.071,54.942,124.681,31.69
			C1277.238,1018.969,1248.523,989.026,1219.838,989.026z"/>
		<path fill="none" d="M1378.5,1446.917c0.229,9.871,9.505,16.3,19.386,16.3c17.472,0,37.695-4.662,58.757-12.114
			c-25.795-11.838-47.238-21.1-56.985-20.943C1389.124,1430.341,1378.248,1436.393,1378.5,1446.917z"/>
		<path fill="none" d="M1278.51,2087.384c-1.52-1.291-3.543-2.296-6.076-3.015c-2.543-0.714-5.624-1.081-9.258-1.081h-14.533v28.058
			h14.533c3.634,0,6.715-0.386,9.258-1.129c2.538-0.762,4.557-1.762,6.076-3.015c1.514-1.262,2.604-2.732,3.29-4.433
			c0.681-1.7,1.028-3.548,1.028-5.505c0-1.896-0.348-3.695-1.028-5.4C1281.114,2090.159,1280.023,2088.669,1278.51,2087.384z"/>
		<path fill="none" d="M1320.591,1001.46c0,6.886,13.776,9.638,23.095,9.638c11.881,0,24.139-4.562,39.981-13.747
			c-11.919-5.271-24.096-8.157-36.462-8.157C1330.248,989.198,1320.591,994.079,1320.591,1001.46z"/>
		<path fill="none" d="M1250.257,1327.927c-39.776,22.775-16.305,71.823,14.543,68.747c25.515-2.553,47.348-24.038,65.033-56.31
			C1299.814,1324.498,1271.195,1315.927,1250.257,1327.927z"/>
		<path fill="none" d="M1597.99,1202.902c-3.781-19.743-6.604-38.19-8.742-53.823c-9.738,14.904-18.496,31.732-26.319,49.528
			c6.505,13.562,13.052,27.962,19.619,43.247C1587.386,1229.255,1592.528,1216.188,1597.99,1202.902z"/>
		<path fill="none" d="M1418.604,1241.854c6.567-15.285,13.101-29.686,19.624-43.247c-7.838-17.796-16.586-34.624-26.333-49.528
			c-2.134,15.633-4.952,34.076-8.729,53.823C1408.614,1216.188,1413.767,1229.255,1418.604,1241.854z"/>
		<path fill="none" d="M1428.947,887.159c-2.914,2.081-9.152,10.129-9.861,21.72c-0.905,15.019,7.533,31.356,24.438,47.361
			c2.99-0.305,5.348-1.038,7.296-1.938c-23.086-18.058-28.348-33.796-28.596-43.981c-0.2-8.3,2.919-15.909,8.329-20.333
			c4.49-3.672,11.8-4.981,19.557-3.505c9.305,1.767,27.31,9.195,44.528,38.909c0.314-0.313,0.652-0.6,1.015-0.861l-3.452-9.757
			c2.509-1.281,5.356-1.996,8.371-1.996c3.019,0,5.862,0.715,8.372,1.996l-3.42,9.771c0.348,0.258,0.686,0.538,0.991,0.848
			c17.219-29.714,35.214-37.143,44.528-38.909c7.752-1.477,15.062-0.162,19.548,3.505c5.419,4.424,8.533,12.019,8.333,20.333
			c-0.242,10.19-5.514,25.924-28.604,43.981c1.957,0.899,4.305,1.633,7.295,1.938c16.91-16.005,25.353-32.343,24.434-47.361
			c-0.7-11.591-6.942-19.639-9.853-21.72c-15.053-10.757-34.705,0.344-50.5,9.248c-8.781,4.957-15.714,8.871-21.123,8.871
			c-5.41,0-12.344-3.914-21.119-8.871C1463.667,887.503,1444.015,876.412,1428.947,887.159z"/>
		<path fill="none" d="M1382.19,1113.455c-9.472-8.5-19.647-15.109-30.562-19.291c9.971,17.7,19.409,36.419,28.257,55.419
			C1381.005,1137.389,1381.757,1125.303,1382.19,1113.455z"/>
		<path fill="none" d="M1621.257,1149.583c8.853-18.995,18.286-37.719,28.267-55.419c-10.914,4.182-21.086,10.791-30.571,19.296
			C1619.381,1125.303,1620.152,1137.389,1621.257,1149.583z"/>
		<path fill="none" d="M1481.619,1451.321c6.262,2.867,12.609,5.786,18.952,8.662c6.343-2.876,12.687-5.8,18.957-8.662
			c-6.28-2.686-12.604-5.586-18.957-8.628C1494.215,1445.735,1487.896,1448.621,1481.619,1451.321z"/>
		<path fill="none" d="M1849.023,2125.65c-0.871,2.124-1.295,4.476-1.295,7.043c0,2.576,0.429,4.919,1.295,7.042
			c0.877,2.119,2.109,3.967,3.695,5.51c1.591,1.548,3.481,2.748,5.682,3.571c2.189,0.844,4.613,1.258,7.267,1.258
			c2.647,0,5.066-0.414,7.252-1.258c2.214-0.823,4.091-2.023,5.69-3.571c1.586-1.543,2.819-3.391,3.682-5.51
			c0.871-2.118,1.305-4.466,1.305-7.042c0-2.563-0.438-4.915-1.305-7.043c-0.867-2.119-2.096-3.934-3.682-5.457
			c-1.6-1.505-3.477-2.69-5.69-3.567c-2.186-0.876-4.609-1.313-7.252-1.313c-2.657,0-5.077,0.442-7.267,1.313
			c-2.2,0.877-4.091,2.063-5.682,3.567C1851.133,2121.717,1849.9,2123.531,1849.023,2125.65z"/>
		<path fill="none" d="M1822.285,1030.003c0-23.353-15.424-40.977-40.98-40.977c-28.666,0-57.386,29.942-83.69,72.672
			C1776.233,1084.945,1822.285,1054.412,1822.285,1030.003z"/>
		<path fill="none" d="M1500.571,1267.131c10.3-25.828,21.067-48.586,32.058-68.552c-9.443-23.271-20.205-46.615-32.058-68.839
			c-11.853,22.224-22.619,45.567-32.048,68.839C1479.505,1218.545,1490.271,1241.303,1500.571,1267.131z"/>
		<path fill="none" d="M1512.609,1108.231c11.929,18.204,24.124,38.99,36.477,62.714c39.123-60.557,79.49-88.19,110.462-93.924
			c3.009-4.924,6.052-9.752,9.147-14.447c-25.219-10.705-52.291-26.124-80.557-47.224
			C1560.571,1036.96,1534.972,1070.184,1512.609,1108.231z"/>
		<path fill="none" d="M1452.053,1170.931c12.361-23.709,24.557-44.495,36.48-62.699c-22.361-38.048-47.957-71.271-75.533-92.881
			c-28.262,21.1-55.328,36.519-80.553,47.224c3.096,4.695,6.139,9.523,9.144,14.447
			C1372.566,1082.755,1412.934,1110.389,1452.053,1170.931z"/>
		<path fill="none" d="M1585.186,1347.312c-0.657,2.844-2.357,5.291-5.285,5.291c-2.924,0-4.967-2.396-5.301-5.291
			c-3.381-29.08-12.876-67.895-27.143-109.247c-29.357,83.729-41.133,172.324-41.586,176.233c-0.338,2.9-2.343,5.29-5.267,5.29
			c-2.914,0-4.972-2.39-5.305-5.29c-0.467-3.905-12.233-92.505-41.595-176.233c-14.267,41.357-23.767,80.167-27.147,109.247
			c-0.339,2.896-2.382,5.291-5.306,5.291c-2.914,0-4.628-2.452-5.285-5.291c-3.143-13.533-12.371-46.562-26.02-87.395
			c-8.109,29.066-18.613,57.929-32.299,82.519c28.395,18.329,55.914,40.229,77.271,53.52c19.715,12.285,42.429,25.295,65.662,36.548
			c23.238-11.253,45.938-24.263,65.667-36.548c21.343-13.291,48.876-35.195,77.267-53.52c-13.681-24.59-24.177-53.457-32.29-82.519
			C1597.566,1300.745,1588.324,1333.778,1585.186,1347.312z"/>
		<path fill="none" d="M1956.819,2106.341c0.861-2.109,1.295-4.457,1.295-7.038s-0.438-4.924-1.295-7.043
			c-0.886-2.119-2.11-3.934-3.695-5.457c-1.596-1.515-3.485-2.7-5.677-3.581c-2.199-0.872-4.619-1.3-7.262-1.3
			c-2.657,0-5.08,0.433-7.267,1.3c-2.219,0.881-4.091,2.066-5.695,3.581c-1.585,1.519-2.81,3.333-3.676,5.457
			c-0.881,2.114-1.314,4.462-1.314,7.043s0.438,4.924,1.314,7.038c0.871,2.119,2.091,3.957,3.676,5.514
			c1.604,1.553,3.477,2.738,5.695,3.567c2.187,0.848,4.614,1.257,7.267,1.257c2.648,0,5.063-0.409,7.262-1.257
			c2.191-0.829,4.081-2.015,5.677-3.567C1954.705,2110.298,1955.934,2108.465,1956.819,2106.341z"/>
		<path fill="none" d="M1553.467,973.588c-2.443,0-4.414-1.971-4.414-4.404c0-2.243,1.681-4.086,3.833-4.367l-0.348-2.681h-51.967
			h-0.157h-51.795l-0.353,2.681c2.162,0.281,3.833,2.124,3.833,4.367c0,2.434-1.98,4.404-4.409,4.404
			c-0.2,0-0.391-0.014-0.571-0.043l-0.353,2.69h50.657v-0.009h5.553v0.009h51.404l-0.348-2.69
			C1553.843,973.574,1553.652,973.588,1553.467,973.588z M1468.843,973.588c-2.433,0-4.409-1.971-4.409-4.404
			s1.977-4.405,4.409-4.405c2.438,0,4.405,1.972,4.405,4.405S1471.281,973.588,1468.843,973.588z M1489.995,973.588
			c-2.433,0-4.399-1.971-4.399-4.404s1.966-4.405,4.399-4.405s4.405,1.972,4.405,4.405S1492.429,973.588,1489.995,973.588z
			 M1511.152,973.588c-2.434,0-4.404-1.971-4.404-4.404s1.971-4.405,4.404-4.405c2.429,0,4.41,1.972,4.41,4.405
			S1513.581,973.588,1511.152,973.588z M1532.305,973.588c-2.434,0-4.414-1.971-4.414-4.404s1.98-4.405,4.414-4.405
			c2.429,0,4.404,1.972,4.404,4.405S1534.733,973.588,1532.305,973.588z"/>
		<polygon fill="none" points="2400.633,1828.112 2476.528,1828.112 2438.505,1736.526 		"/>
		<path fill="none" d="M2691.99,1799.117c6.243-1.9,11.281-4.672,15.139-8.324c3.861-3.647,6.885-8.419,9.109-14.333
			c2.219-5.919,3.324-13.205,3.324-21.867c0-15.109-3.777-27.2-11.319-36.285c-7.563-9.081-24.005-13.629-49.357-13.629
			c-3.914,0-8.399,0.214-13.467,0.638v98.238c7.914-0.214,16.096-0.538,24.553-0.947
			C2678.429,1802.179,2685.752,1801.012,2691.99,1799.117z"/>
		<polygon fill="none" points="1179.243,2085.341 1161.757,2127.583 1196.624,2127.583 		"/>
		<polygon fill="none" points="1040.01,1828.112 1115.914,1828.112 1077.886,1736.526 		"/>
		<circle fill="none" cx="1500.571" cy="931.283" r="5.729"/>
		<path fill="none" d="M1487.767,924.212c-15.396-24.705-30.624-31.019-38.647-32.533c-7.343-1.396-12.676,0.328-15.219,2.4
			c-3.21,2.628-6.576,8.232-6.381,16.114c0.219,9.262,5.342,23.843,28.138,41.161c1.952-1.419,3.571-2.695,5.519-3.147
			c-1.69-0.614-2.909-2.233-2.909-4.143c0-1.485,0.743-2.8,1.876-3.6c-1.29-2.024-2.995-3.229-4.519-3.229
			c-2.257,0-3.848,2.477-4.357,6.796c-0.033,0.2-0.186,0.348-0.371,0.376c-0.195,0.043-0.386-0.062-0.472-0.233
			c-3.071-6.3-2.281-9.938-1.057-11.886c1.181-1.886,3.275-2.976,5.747-2.976c1.271,0,2.533,0.29,3.677,0.843
			c-2.362-5.058-4.382-11.21,3.585-18.453c0.162-0.152,0.419-0.152,0.596,0c7.976,7.243,5.947,13.396,3.6,18.453
			c1.134-0.553,2.4-0.843,3.667-0.843c2.467,0,4.566,1.09,5.757,2.976c1.2,1.947,2.005,5.586-1.066,11.886
			c-0.086,0.172-0.276,0.276-0.472,0.233c-0.195-0.028-0.348-0.176-0.361-0.376c-0.524-4.319-2.119-6.796-4.367-6.796
			c-1.523,0-3.224,1.205-4.523,3.229c1.133,0.8,1.871,2.114,1.871,3.6c0,1.881-1.162,3.472-2.81,4.104
			c4.424,0.843,4.147,5.157,12.51,5.157c11.019,0,18.853-15.267,18.853-15.267h0.038c-0.7-0.515-1.314-1.124-1.833-1.824
			l-9.768,3.429c-1.275-2.509-2-5.361-2-8.381c0-3.019,0.725-5.856,2-8.376L1487.767,924.212z"/>
		<path fill="none" d="M1507.314,936.231c-0.515,0.699-1.129,1.31-1.834,1.828h0.048c0,0,7.819,15.267,18.843,15.267
			c8.362,0,8.091-4.314,12.515-5.157c-1.652-0.633-2.819-2.229-2.819-4.104c0-1.485,0.738-2.8,1.871-3.6
			c-1.29-2.024-2.994-3.229-4.514-3.229c-2.257,0-3.848,2.477-4.367,6.796c-0.023,0.2-0.176,0.348-0.356,0.376
			c-0.21,0.043-0.386-0.062-0.477-0.233c-3.076-6.3-2.28-9.938-1.062-11.886c1.181-1.886,3.275-2.977,5.747-2.977
			c1.281,0,2.538,0.291,3.677,0.844c-2.353-5.058-4.381-11.21,3.586-18.453c0.171-0.152,0.424-0.152,0.595,0
			c7.972,7.243,5.947,13.396,3.591,18.453c1.143-0.553,2.409-0.844,3.671-0.844c2.472,0,4.567,1.091,5.748,2.977
			c1.214,1.947,2.015,5.586-1.053,11.886c-0.091,0.172-0.276,0.276-0.476,0.233c-0.187-0.028-0.344-0.176-0.357-0.376
			c-0.524-4.319-2.119-6.796-4.362-6.796c-1.528,0-3.233,1.205-4.528,3.229c1.124,0.8,1.876,2.114,1.876,3.6
			c0,1.909-1.214,3.528-2.904,4.143c1.947,0.452,3.562,1.729,5.519,3.147c22.801-17.318,27.914-31.899,28.143-41.161
			c0.187-7.877-3.176-13.486-6.39-16.114c-2.543-2.072-7.872-3.796-15.22-2.4c-8.023,1.515-23.257,7.828-38.652,32.543l3.705-1.314
			c1.281,2.515,2.005,5.357,2.005,8.376c0,3.02-0.724,5.867-2.005,8.381L1507.314,936.231z"/>
		<path fill="none" d="M1506.952,2110.217c2.534-0.762,4.562-1.762,6.067-3.015c1.519-1.262,2.618-2.733,3.295-4.433
			c0.69-1.7,1.023-3.548,1.023-5.505c0-1.896-0.333-3.695-1.023-5.4c-0.682-1.705-1.776-3.195-3.295-4.48
			c-1.506-1.291-3.534-2.296-6.067-3.015c-2.538-0.714-5.634-1.081-9.257-1.081h-14.533v28.058h14.533
			C1501.319,2111.346,1504.414,2110.96,1506.952,2110.217z"/>
		<path fill="#004E37" d="M425.028,1719.26c1.109-4.757,3.3-8.015,6.576-9.757c3.267-1.733,10.186-2.605,20.753-2.605h4.595v-7.285
			h-98.233v7.285h4.591c10.876,0,17.957,0.953,21.233,2.853c3.276,1.9,5.391,5.329,6.338,10.295
			c0.947,4.972,1.429,16.01,1.429,33.119v105.357c0,17.972-0.481,29.405-1.429,34.305c-0.947,4.914-3.2,8.538-6.733,10.853
			c-3.543,2.324-9.899,3.481-19.091,3.481h-6.338v7.29h98.233v-7.29h-6.338c-9.724,0-16.295-1.268-19.729-3.806
			c-3.434-2.523-5.543-6.414-6.343-11.638c-0.791-5.229-1.186-16.295-1.186-33.2V1753.16
			C423.362,1735.312,423.919,1724.012,425.028,1719.26z"/>
		<path fill="#004E37" d="M506.629,1892.826c-1.005,4.914-3.276,8.538-6.814,10.853c-3.548,2.324-9.905,3.481-19.091,3.481h-6.343
			v7.29h182.523l1.586-63.219h-7.442c-4.757,17.009-10.015,29.419-15.767,37.233c-5.758,7.828-11.834,12.895-18.22,15.209
			c-6.395,2.324-16.19,3.481-29.395,3.481h-16.314c-12.362,0-20.415-1.086-24.167-3.248c-3.752-2.167-6.048-5.205-6.891-9.109
			c-0.848-3.905-1.267-13.629-1.267-29.152v-112.49c0-17.853,0.558-29.152,1.662-33.91c1.114-4.757,3.305-8.005,6.576-9.737
			c3.267-1.748,10.186-2.624,20.753-2.624h9.504v-7.281H474.381v7.281h4.757c10.882,0,17.929,0.957,21.153,2.857
			c3.219,1.899,5.328,5.328,6.338,10.295c1,4.972,1.5,16.01,1.5,33.119v105.357C508.129,1876.493,507.629,1887.917,506.629,1892.826
			z"/>
		<path fill="#004E37" d="M702.619,1892.826c-1.005,4.914-3.276,8.538-6.81,10.853c-3.553,2.324-9.909,3.481-19.095,3.481h-6.339
			v7.29H852.9l1.59-63.219h-7.447c-4.752,17.009-10.01,29.419-15.762,37.233c-5.767,7.828-11.834,12.895-18.229,15.209
			c-6.391,2.324-16.186,3.481-29.391,3.481h-16.314c-12.357,0-20.414-1.086-24.162-3.248c-3.752-2.167-6.052-5.205-6.895-9.109
			c-0.844-3.904-1.268-13.629-1.268-29.152v-112.49c0-17.853,0.553-29.152,1.672-33.91c1.1-4.757,3.291-8.005,6.566-9.737
			c3.276-1.748,10.19-2.624,20.753-2.624h9.509v-7.281H670.376v7.281h4.753c10.876,0,17.929,0.957,21.152,2.857
			c3.219,1.899,5.333,5.328,6.338,10.295c1,4.972,1.505,16.01,1.505,33.119v105.357
			C704.124,1876.493,703.619,1887.917,702.619,1892.826z"/>
		<path fill="#004E37" d="M897.743,1892.826c-0.952,4.914-3.195,8.538-6.733,10.853c-3.543,2.324-9.91,3.481-19.096,3.481h-6.338
			v7.29h98.233v-7.29h-6.338c-9.72,0-16.296-1.268-19.729-3.806c-3.434-2.523-5.538-6.414-6.339-11.638
			c-0.79-5.229-1.189-16.295-1.189-33.2V1753.16c0-17.853,0.557-29.152,1.666-33.905c1.104-4.757,3.295-8.015,6.571-9.757
			c3.276-1.733,10.19-2.604,20.757-2.604h4.596v-7.286h-98.233v7.286h4.596c10.881,0,17.957,0.952,21.229,2.852
			c3.271,1.9,5.39,5.329,6.343,10.296c0.947,4.971,1.419,16.009,1.419,33.119v105.356
			C899.162,1876.498,898.69,1887.927,897.743,1892.826z"/>
		<path fill="#004E37" d="M1200.361,1907.164c-7.509-0.733-13.123-2.547-16.881-5.457c-3.752-2.909-6.729-6.899-8.942-11.972
			l-9.829-22.5l-71.766-170.643h-6.191l-62.424,149.096c-4.542,10.676-7.076,16.8-7.604,18.381
			c-6.548,16.795-12.147,27.795-16.79,33.033c-4.652,5.233-11.725,8.586-21.233,10.057v7.291h63.856v-7.291
			c-6.871,0-12.494-1.656-16.881-4.99c-4.381-3.319-6.566-8.224-6.566-14.657c0-6.019,4.109-18.899,12.362-38.652l5.543-13.633
			h81.595l16.477,39.775c4.861,11.515,7.29,18.438,7.29,20.758c0,4.543-1.828,7.586-5.472,9.109
			c-3.643,1.528-10.643,2.29-20.985,2.29v7.291h84.448v-7.286H1200.361z M1040.01,1828.112l37.876-91.581l38.028,91.581H1040.01z"/>
		<path fill="#004E37" d="M1505.99,1907.164h-9.51c-9.724,0-16.3-1.267-19.724-3.805c-3.433-2.523-5.581-6.409-6.419-11.638
			c-0.848-5.229-1.262-16.291-1.262-33.2v-105.357c0-17.852,0.548-29.152,1.657-33.904c1.104-4.762,3.295-8.01,6.571-9.743
			c3.276-1.747,10.195-2.624,20.752-2.624h7.934v-7.28h-65.919l-78.267,177.78l-78.743-177.78h-65.438v7.28h5.854
			c10.881,0,17.928,0.958,21.152,2.857c3.219,1.9,5.338,5.329,6.342,10.296c0.996,4.971,1.506,16.009,1.506,33.118v93.486
			c0,17.743-0.639,29.886-1.9,36.434c-1.276,6.552-4.786,12.071-10.543,16.562c-5.752,4.495-13.219,6.99-22.414,7.519v7.291h76.838
			v-7.291c-9.924-0.623-17.633-3.295-23.129-7.995c-5.49-4.695-8.771-10.166-9.828-16.395c-1.053-6.238-1.581-17.962-1.581-35.177
			v-125.814l85.714,192.672h7.453l85.08-192.672v136.738c0,17.967-0.509,29.396-1.509,34.305c-1.005,4.914-3.276,8.538-6.81,10.853
			c-3.538,2.324-9.848,3.481-18.934,3.481h-7.604v7.29h102.677v-7.286H1505.99z"/>
		<path fill="#004E37" d="M1904.023,1706.693c0-13.529-4.385-25.101-13.128-34.729c-8.757-9.619-19.71-14.42-32.862-14.42
			c-12.785,0-23.3,3.348-31.553,10.053c-8.247,6.695-12.381,14.276-12.381,22.719c0,5.334,1.605,9.981,4.838,13.958
			c3.22,3.971,7.934,5.957,14.148,5.957c5.214,0,9.59-1.743,13.128-5.224c3.534-3.467,5.3-7.5,5.3-12.091
			c0-3.843-1.433-7.819-4.28-11.919c-2.233-3.22-3.343-5.695-3.343-7.443c0-2.719,1.152-4.742,3.447-6.057
			c2.295-1.291,5.729-1.948,10.319-1.948c9.323,0,17.009,3.195,23.095,9.591s9.134,14.566,9.134,24.485
			c0,16.763-6.843,29.224-20.49,37.415c-13.647,8.318-35.558,12.476-65.724,12.476c-33.634,0-56.839,6.262-69.619,18.8
			c-12.796,12.533-19.182,26.448-19.182,41.705c0,10.419,3.643,19.21,10.891,26.353c7.257,7.128,15.929,10.69,25.962,10.69
			c8.447,0,15.371-2.604,20.771-7.81c5.391-5.215,8.095-11.729,8.095-19.558c0-5.462-1.613-9.704-4.848-12.752
			c-3.229-3.038-7.014-4.558-11.361-4.558c-4.596,0-8.361,1.763-11.348,5.306c-2.977,3.528-4.467,8.033-4.467,13.495
			c0,0.623,0.058,1.733,0.177,3.356l0.19,2.233c0,5.21-2.424,7.81-7.248,7.81c-4.238,0-8.323-2.233-12.3-6.695
			c-3.972-4.467-5.957-10.176-5.957-17.138c0-11.533,5.495-21.147,16.48-28.843c10.986-7.695,23.491-11.548,37.524-11.548
			c17.361,0,31.143,4.942,41.314,14.79c10.181,9.872,15.275,21.524,15.275,34.915c0,20.109-10.338,37.395-30.99,51.853
			c-20.686,14.457-45.528,21.694-74.562,21.694c-30.662,0-56.291-9.229-76.886-27.652c-20.619-18.428-30.924-38-30.924-58.742
			c0-10.662,3.52-19.881,10.528-27.647c7.005-7.748,14.429-11.624,22.248-11.624c6.085,0,12.295,2.724,18.604,8.186
			c5.962,5.095,10.867,7.629,14.729,7.629c3.462,0,6.1-1.105,7.91-3.343c1.79-2.233,2.689-4.596,2.689-7.076
			c0-9.934-8.557-14.891-25.686-14.891c-2.623,0-4.628-0.686-6.053-2.058c-1.428-1.357-3.014-4.31-4.762-8.833
			c-1.732-4.524-2.595-10.076-2.595-16.667c0-14.638,5.976-27.652,17.962-39c11.98-11.357,24.843-17.033,38.623-17.033
			c8.563,0,15.887,2.319,21.963,6.985c6.09,4.652,9.123,10.71,9.123,18.157c0,4.962-0.99,9.867-2.976,14.695
			c-1.238,2.981-1.853,4.914-1.853,5.776c0,2.362,1.114,3.543,3.338,3.543c4.6,0,8.977-3.172,13.129-9.51
			c4.166-6.314,6.232-13.214,6.232-20.666c0-9.919-4.3-18.453-12.933-25.591c-8.619-7.134-19.4-10.7-32.296-10.7
			c-11.552,0-22.686,3.104-33.424,9.3c-10.738,6.21-19.576,14.382-26.528,24.477c-6.957,10.129-10.434,21.081-10.434,32.866
			c0,10.424,2.81,21.653,8.391,33.691c-19.238,2.742-33.767,9.938-43.571,21.6c-9.801,11.667-14.705,26.066-14.705,43.186
			c0,14.033,3.267,27.162,9.776,39.381c6.519,12.224,15.452,22.563,26.814,31.01c11.366,8.434,23.3,14.861,35.833,19.271
			c12.538,4.404,28.929,6.604,49.143,6.604c24.953,0,46.082-3.729,63.396-11.171c17.324-7.448,32.058-18.867,44.214-34.258
			c12.167-15.376,18.238-31.338,18.238-47.853c0-21.962-9.924-39.957-29.775-53.985c20.724-0.733,36.823-3.276,48.313-7.629
			c11.472-4.348,20.972-11.8,28.481-22.348C1900.257,1731.15,1904.023,1719.469,1904.023,1706.693z"/>
		<path fill="#004E37" d="M2018.467,1876.931c-1.51,7.839-5.71,14.429-12.6,19.805c-6.887,5.367-15.829,8.372-26.824,9.005v8.715
			h91.934v-8.715c-11.887-0.757-21.11-3.947-27.672-9.58c-6.576-5.619-10.49-12.157-11.748-19.61
			c-1.285-7.452-1.909-21.48-1.909-42.071v-150.505l102.553,230.481h8.909l101.786-230.481v163.581
			c0,21.486-0.605,35.167-1.81,41.038c-1.205,5.872-3.92,10.195-8.152,12.981c-4.243,2.776-11.781,4.171-22.652,4.171h-9.091v8.715
			h122.8v-8.715h-11.353c-11.628,0-19.514-1.514-23.614-4.547c-4.095-3.043-6.657-7.687-7.666-13.929
			c-1.01-6.267-1.52-19.491-1.52-39.715v-126.048c0-21.352,0.662-34.876,1.995-40.562c1.329-5.671,3.948-9.571,7.853-11.657
			c3.919-2.086,12.205-3.119,24.834-3.119h9.471v-8.719h-78.833l-93.634,212.667l-94.204-212.667h-78.276v8.719h7.033
			c12.995,0,21.434,1.139,25.295,3.405c3.853,2.28,6.381,6.381,7.572,12.314c1.209,5.952,1.809,19.147,1.809,39.618v111.819
			C2020.742,1854.569,2019.985,1869.098,2018.467,1876.931z"/>
		<path fill="#004E37" d="M2497.52,1904.874c-3.644,1.528-10.629,2.29-20.986,2.29v7.291h84.447v-7.291
			c-7.504-0.733-13.128-2.547-16.881-5.457c-3.737-2.909-6.729-6.899-8.933-11.972l-9.838-22.5l-71.767-170.643h-6.19
			l-62.409,149.096c-4.539,10.676-7.076,16.8-7.609,18.381c-6.558,16.795-12.152,27.795-16.796,33.033
			c-4.647,5.233-11.724,8.586-21.233,10.057v7.291h63.853v-7.291c-6.871,0-12.495-1.656-16.876-4.99
			c-4.381-3.319-6.576-8.224-6.576-14.657c0-6.019,4.119-18.899,12.361-38.652l5.543-13.633h81.601l16.48,39.775
			c4.862,11.515,7.286,18.438,7.286,20.758C2502.99,1900.308,2501.172,1903.346,2497.52,1904.874z M2400.633,1828.112l37.872-91.581
			l38.023,91.581H2400.633z"/>
		<path fill="#004E37" d="M2612.934,1892.826c-0.943,4.914-3.19,8.538-6.729,10.853c-3.543,2.324-9.905,3.481-19.091,3.481h-6.977
			v7.29h102.833v-7.29h-10.3c-9.729,0-16.295-1.268-19.733-3.806c-3.424-2.523-5.543-6.414-6.328-11.633
			c-0.801-5.233-1.19-16.3-1.19-33.205v-47.676h8.558c5.805,0,10.08,0.972,12.818,2.929c2.758,1.962,7.776,7.391,15.066,16.323
			c7.276,8.924,14.311,18.243,21.072,27.962c21.128,30.419,36.805,49.224,47.052,56.405h57.833v-7.291
			c-12.666-0.409-23.666-4.014-32.947-10.776c-9.3-6.752-22.086-21.066-38.353-42.933c-19.966-26.934-34.433-42.567-43.409-46.9
			c20.071-2.434,35.271-8.609,45.628-18.543c10.357-9.924,15.538-21.924,15.538-35.967c0-12.033-3.967-22.395-11.891-31.047
			c-7.924-8.667-18.3-14.9-31.143-18.705c-12.823-3.81-29.48-5.705-49.98-5.705c-12.043,0-28.305,0.477-48.805,1.429l-30.725,1.586
			v7.285h3.644c10.871,0,17.957,0.953,21.224,2.853c3.275,1.9,5.395,5.334,6.338,10.296c0.952,4.971,1.429,16.009,1.429,33.118
			v105.357C2614.361,1876.498,2613.886,1887.917,2612.934,1892.826z M2645.419,1705.312c5.067-0.424,9.553-0.638,13.467-0.638
			c25.353,0,41.795,4.548,49.357,13.629c7.542,9.086,11.319,21.176,11.319,36.285c0,8.657-1.105,15.948-3.324,21.867
			c-2.224,5.914-5.252,10.686-9.109,14.333c-3.857,3.652-8.896,6.424-15.139,8.324c-6.242,1.895-13.566,3.066-22.02,3.485
			c-8.457,0.409-16.638,0.733-24.552,0.947V1705.312L2645.419,1705.312z"/>
		<path fill="#004E37" d="M2927.523,1706.897c9.505,0,16.101,1.843,19.805,5.543c3.695,3.695,5.539,7.762,5.539,12.195
			c0,4.871-3.472,13.101-10.447,24.724l-42.305,71.144l-51.339-84.781c-5.396-8.862-8.081-14.781-8.081-17.733
			c0-7.4,8.134-11.096,24.4-11.096v-7.285h-87.143v7.285c9.295,0.205,15.738,2.038,19.328,5.458
			c3.581,3.433,10.829,14.023,21.705,31.775l53.562,87.929v26.477c0,17.957-0.48,29.381-1.433,34.29
			c-0.943,4.915-3.195,8.543-6.725,10.853c-3.538,2.324-9.909,3.481-19.1,3.481h-3.477v7.29h91.572v-7.29
			c-10.667,0-17.834-1.024-21.467-3.081c-3.658-2.058-6.029-5.601-7.129-10.614c-1.109-5.02-1.666-16.662-1.666-34.934v-28.528
			l48.166-80.324c9.291-15.429,16.929-26.066,22.895-31.933c5.963-5.853,13.801-9.486,23.524-10.848v-7.286h-70.187V1706.897z"/>
		<path fill="#004E37" d="M973.167,2146.265c3.747,3.752,8.176,6.681,13.295,8.805c5.104,2.114,10.643,3.181,16.634,3.181
			c3.323,0,6.48-0.376,9.48-1.133c2.99-0.763,5.771-1.801,8.353-3.129c2.566-1.319,4.856-2.881,6.862-4.705
			c2.014-1.823,3.694-3.752,5.062-5.795l-6.7-4.767c-1.52,2.343-3.166,4.3-4.943,5.848c-1.785,1.552-3.676,2.78-5.676,3.686
			c-2.005,0.904-4.057,1.552-6.133,1.929c-2.076,0.381-4.182,0.576-6.301,0.576c-5.152,0-9.766-0.953-13.861-2.843
			c-4.091-1.891-7.548-4.434-10.386-7.619c-2.838-3.167-5.024-6.862-6.538-11.072c-1.505-4.19-2.267-8.609-2.267-13.224
			c0-4.624,0.762-9.043,2.267-13.229c1.514-4.209,3.7-7.891,6.538-11.076s6.295-5.705,10.386-7.609
			c4.09-1.891,8.709-2.838,13.861-2.838c2.119,0,4.234,0.3,6.362,0.904c2.119,0.614,4.101,1.405,5.962,2.386
			c1.853,0.977,3.495,2.124,4.938,3.41c1.442,1.29,2.576,2.566,3.414,3.856l7.147-5.323c-3.562-4.553-7.838-7.814-12.838-9.781
			c-4.995-1.972-9.995-2.952-14.986-2.952c-5.985,0-11.523,1.071-16.633,3.181c-5.124,2.124-9.553,5.053-13.295,8.814
			c-3.743,3.748-6.682,8.19-8.796,13.338c-2.128,5.147-3.186,10.786-3.186,16.924c0,6.134,1.058,11.776,3.186,16.929
			C966.486,2138.064,969.424,2142.526,973.167,2146.265z"/>
		<polygon fill="#004E37" points="1118.038,2156.197 1118.038,2075.793 1109.857,2075.793 1109.857,2110.664 1066.02,2110.664 
			1066.02,2075.793 1057.838,2075.793 1057.838,2156.197 1066.02,2156.197 1066.02,2118.15 1109.857,2118.15 1109.857,2156.197 		
			"/>
		<path fill="#004E37" d="M1158.686,2135.079h41.114l8.862,21.118h9.538l-34.981-80.404h-7.947l-34.986,80.404h9.543
			L1158.686,2135.079z M1179.243,2085.341l17.381,42.242h-34.867L1179.243,2085.341z"/>
		<path fill="#004E37" d="M1291.686,2097.265c0-7.195-2.371-12.572-7.095-16.129c-4.738-3.553-11.195-5.333-19.367-5.333h-24.767
			v80.404h8.182v-37.376h13.623l22.033,37.376h9.996l-23.167-38.166c6.662-0.61,11.757-2.824,15.276-6.648
			C1289.914,2107.569,1291.686,2102.859,1291.686,2097.265z M1281.8,2102.77c-0.686,1.694-1.776,3.171-3.29,4.433
			c-1.52,1.253-3.543,2.253-6.076,3.015c-2.543,0.743-5.624,1.129-9.258,1.129h-14.533v-28.058h14.533
			c3.634,0,6.715,0.362,9.258,1.081c2.538,0.714,4.557,1.724,6.076,3.015c1.514,1.29,2.604,2.775,3.29,4.48
			c0.681,1.7,1.028,3.5,1.028,5.4C1282.828,2099.222,1282.477,2101.069,1281.8,2102.77z"/>
		<polygon fill="#004E37" points="1345.51,2156.197 1345.51,2083.288 1372.424,2083.288 1372.424,2075.793 1310.414,2075.793 
			1310.414,2083.288 1337.338,2083.288 1337.338,2156.197 		"/>
		<polygon fill="#004E37" points="1446.133,2083.288 1446.133,2075.793 1396.281,2075.793 1396.281,2156.197 1447.495,2156.197 
			1447.495,2148.707 1404.462,2148.707 1404.462,2118.15 1443.409,2118.15 1443.409,2110.664 1404.462,2110.664 1404.462,2083.288 
					"/>
		<path fill="#004E37" d="M1483.157,2118.831h13.628l22.039,37.376h9.995l-23.172-38.166c6.662-0.61,11.753-2.824,15.271-6.648
			c3.524-3.828,5.281-8.538,5.281-14.133c0-7.195-2.367-12.571-7.086-16.129c-4.743-3.552-11.204-5.333-19.366-5.333h-24.762v80.405
			h8.176v-37.372H1483.157z M1483.157,2083.288h14.533c3.629,0,6.72,0.362,9.257,1.081c2.533,0.714,4.563,1.724,6.066,3.015
			c1.52,1.29,2.619,2.775,3.296,4.48c0.69,1.7,1.023,3.5,1.023,5.4c0,1.957-0.333,3.805-1.023,5.505
			c-0.681,1.694-1.776,3.171-3.296,4.433c-1.504,1.253-3.533,2.253-6.066,3.015c-2.537,0.743-5.633,1.129-9.257,1.129h-14.533
			V2083.288z"/>
		<polygon fill="#004E37" points="1603.538,2083.288 1603.538,2075.793 1553.69,2075.793 1553.69,2156.197 1604.896,2156.197 
			1604.896,2148.707 1561.861,2148.707 1561.861,2118.15 1600.814,2118.15 1600.814,2110.664 1561.861,2110.664 1561.861,2083.288 
					"/>
		<path fill="#004E37" d="M1686.614,2085.85c-4.058-3.371-8.595-5.885-13.624-7.552c-5.047-1.672-10.057-2.5-15.053-2.5h-26.686
			v80.404h26.686c4.996,0,10.01-0.828,15.053-2.485c5.033-1.672,9.572-4.186,13.624-7.558c4.053-3.371,7.314-7.552,9.823-12.552
			c2.496-5,3.743-10.862,3.743-17.601c0-6.661-1.247-12.514-3.743-17.557C1693.934,2093.417,1690.667,2089.222,1686.614,2085.85z
			 M1689.167,2128.098c-1.443,3.896-3.644,7.386-6.629,10.447c-3.005,3.072-6.743,5.529-11.262,7.391
			c-4.49,1.848-9.814,2.771-15.942,2.771h-15.905v-65.414h15.905c6.128,0,11.447,0.929,15.942,2.786
			c4.519,1.848,8.257,4.318,11.262,7.376c2.985,3.071,5.186,6.548,6.629,10.447c1.447,3.9,2.157,7.943,2.157,12.101
			C1691.324,2120.164,1690.609,2124.197,1689.167,2128.098z"/>
		<polygon fill="#004E37" points="1799.219,2156.197 1799.219,2075.793 1791.962,2075.793 1771.51,2092.607 1776.619,2098.736 
			1791.057,2086.017 1791.057,2156.197 		"/>
		<path fill="#004E37" d="M1868.162,2075.803l-21.695,35.318c-1.962,3.253-3.609,6.538-4.943,9.877
			c-1.314,3.333-1.976,7.233-1.976,11.69c0,3.714,0.638,7.081,1.929,10.114c1.28,3.023,3.095,5.643,5.457,7.838
			c2.338,2.19,5.09,3.896,8.275,5.109c3.187,1.2,6.662,1.81,10.453,1.81c3.775,0,7.252-0.609,10.442-1.81
			c3.181-1.214,5.938-2.919,8.281-5.109c2.348-2.2,4.177-4.819,5.457-7.838c1.286-3.033,1.938-6.4,1.938-10.114
			c0-3.629-0.629-6.962-1.881-9.991c-1.253-3.033-2.977-5.643-5.157-7.833c-2.21-2.2-4.805-3.929-7.786-5.181
			c-2.99-1.238-6.233-1.867-9.709-1.867c-1.824,0-3.805,0.229-5.963,0.677c-2.171,0.462-3.885,1.138-5.176,2.052l-0.233-0.237
			l21.924-34.51h-9.638V2075.803z M1858.404,2116.626c2.191-0.876,4.615-1.313,7.268-1.313c2.647,0,5.066,0.442,7.252,1.313
			c2.215,0.877,4.091,2.063,5.69,3.567c1.586,1.519,2.819,3.333,3.681,5.457c0.872,2.124,1.305,4.476,1.305,7.043
			c0,2.576-0.438,4.919-1.305,7.042c-0.866,2.119-2.095,3.967-3.681,5.51c-1.6,1.548-3.476,2.748-5.69,3.571
			c-2.186,0.844-4.609,1.258-7.252,1.258c-2.658,0-5.076-0.414-7.268-1.258c-2.199-0.823-4.09-2.023-5.681-3.571
			c-1.585-1.543-2.823-3.391-3.695-5.51c-0.871-2.118-1.295-4.466-1.295-7.042c0-2.563,0.429-4.915,1.295-7.043
			c0.876-2.119,2.11-3.934,3.695-5.457C1854.31,2118.688,1856.205,2117.503,1858.404,2116.626z"/>
		<path fill="#004E37" d="M1937.667,2156.197l21.7-35.31c1.957-3.247,3.604-6.552,4.938-9.881c1.319-3.328,1.986-7.229,1.986-11.699
			c0-3.705-0.639-7.072-1.93-10.11c-1.29-3.028-3.1-5.647-5.457-7.833c-2.343-2.209-5.1-3.904-8.285-5.114
			c-3.176-1.214-6.667-1.819-10.438-1.819c-3.79,0-7.267,0.605-10.457,1.819c-3.186,1.21-5.947,2.905-8.29,5.114
			c-2.343,2.186-4.157,4.805-5.453,7.833c-1.285,3.038-1.928,6.405-1.928,10.11c0,3.628,0.628,6.966,1.871,9.985
			c1.248,3.043,2.972,5.647,5.176,7.848c2.195,2.195,4.791,3.914,7.776,5.162c2.981,1.247,6.229,1.881,9.71,1.881
			c1.814,0,3.81-0.229,5.971-0.69c2.158-0.453,3.872-1.134,5.162-2.053l0.229,0.238l-21.914,34.519H1937.667L1937.667,2156.197z
			 M1947.443,2115.426c-2.2,0.848-4.619,1.258-7.263,1.258c-2.657,0-5.081-0.41-7.267-1.258c-2.219-0.828-4.09-2.014-5.695-3.566
			c-1.586-1.557-2.81-3.396-3.676-5.514c-0.881-2.109-1.314-4.457-1.314-7.038s0.438-4.924,1.314-7.043
			c0.871-2.119,2.09-3.934,3.676-5.457c1.605-1.515,3.477-2.7,5.695-3.581c2.186-0.872,4.614-1.301,7.267-1.301
			c2.647,0,5.063,0.434,7.263,1.301c2.189,0.881,4.08,2.066,5.676,3.581c1.586,1.519,2.814,3.333,3.695,5.457
			c0.861,2.114,1.295,4.462,1.295,7.043s-0.438,4.924-1.295,7.038c-0.886,2.119-2.109,3.957-3.695,5.514
			C1951.523,2113.412,1949.633,2114.598,1947.443,2115.426z"/>
		<path fill="#004E37" d="M2025.181,2145.702c-1.557,1.4-3.343,2.477-5.396,3.229c-2.042,0.768-4.204,1.139-6.471,1.139
			c-4.848,0-8.609-0.914-11.295-2.781c-2.691-1.853-4.71-4.709-6.082-8.576l-8.623,2.614c2.181,5.686,5.476,9.814,9.861,12.386
			c4.396,2.567,9.543,3.857,15.462,3.857c3.481,0,6.776-0.5,9.882-1.538c3.1-1.019,5.833-2.51,8.166-4.477
			c2.343-1.962,4.21-4.391,5.563-7.267c1.371-2.876,2.057-6.171,2.057-9.881c0-2.495-0.391-4.881-1.133-7.157
			c-0.771-2.271-1.819-4.31-3.177-6.138c-1.366-1.805-2.995-3.343-4.886-4.591c-1.891-1.257-3.98-2.104-6.257-2.557l-0.324-0.229
			c1.814-0.605,3.543-1.491,5.22-2.682c1.666-1.161,3.119-2.547,4.361-4.133c1.258-1.601,2.233-3.372,2.967-5.338
			c0.715-1.972,1.081-4.053,1.081-6.253c0-3.333-0.634-6.295-1.876-8.899c-1.253-2.624-2.938-4.81-5.058-6.586
			c-2.119-1.791-4.581-3.134-7.381-4.043c-2.81-0.909-5.796-1.362-8.977-1.362c-4.924,0-9.262,1.043-13.005,3.124
			c-3.752,2.086-6.828,5.276-9.252,9.605l7.152,3.628c1.667-2.876,3.791-5.071,6.367-6.591c2.571-1.509,5.566-2.271,8.971-2.271
			c4.687,0,8.339,1.195,10.963,3.585c2.6,2.376,3.914,5.729,3.914,10.048c0,2.638-0.472,4.919-1.429,6.805
			c-0.943,1.896-2.205,3.434-3.805,4.604c-1.581,1.172-3.458,2.029-5.619,2.567c-2.152,0.523-4.409,0.775-6.753,0.775h-4.209v7.5
			h3.528c2.643,0,5.195,0.291,7.662,0.853c2.462,0.566,4.633,1.495,6.528,2.786c1.891,1.29,3.414,2.976,4.548,5.057
			c1.124,2.086,1.695,4.639,1.695,7.662c0,2.348-0.434,4.51-1.305,6.481C2027.943,2142.626,2026.733,2144.293,2025.181,2145.702z"/>
		<path fill="#004E37" d="M72.276,1670.583c3.214-2.528,10.495-4.176,21.852-4.904v-8.523H1.086v8.623
			c8.343,0.467,14.442,1.986,18.143,4.619c3.886,2.781,7.043,7.101,9.448,12.967c2.4,5.867,6.319,17.69,11.752,35.457
			l60.557,195.553h8.89l66.848-207.033l76.481,207.033h8.333l55.181-189.062c7.533-25.553,13.771-41.705,18.705-48.429
			c4.938-6.733,12.472-10.472,22.596-11.205v-8.523H289.5v8.523c17.404,0,26.114,8.152,26.114,24.443
			c0,5.557-2.538,17.343-7.6,35.366l-38.329,133.328l-73.705-201.661h-10.372l-65.547,201.661l-44.819-146.28
			c-5.181-16.795-7.776-27.238-7.776-31.305C67.467,1676.664,69.066,1673.112,72.276,1670.583z"/>
		<circle fill="#C09B57" cx="1511.152" cy="969.188" r="4.405"/>
		<circle fill="#C09B57" cx="1532.305" cy="969.188" r="4.405"/>
		<path fill="#C09B57" d="M1474.972,887.874c1.614,0.038,3.186-0.819,3.99-2.338c1.138-2.144,0.323-4.824-1.823-5.953
			c-2.148-1.143-4.814-0.338-5.953,1.824c-0.818,1.523-0.638,3.319,0.314,4.643c-2.557-1.314-5.176-2.571-7.857-3.709
			c1.619-0.109,3.119-1.124,3.776-2.733c0.905-2.267-0.176-4.829-2.438-5.743c-2.252-0.904-4.823,0.186-5.742,2.438
			c-0.652,1.628-0.267,3.419,0.848,4.628c-2.738-1.014-5.514-1.861-8.295-2.466c1.628-0.391,2.967-1.687,3.309-3.448
			c0.467-2.386-1.1-4.69-3.485-5.162c-2.396-0.462-4.7,1.091-5.166,3.477c-0.348,1.805,0.442,3.557,1.881,4.52
			c-2.819-0.4-5.639-0.51-8.415-0.243c1.353-0.905,2.148-2.543,1.91-4.271c-0.338-2.405-2.571-4.086-4.977-3.753
			c-2.409,0.344-4.09,2.576-3.752,4.981c0.252,1.79,1.543,3.162,3.162,3.634c-2.629,0.59-5.21,1.566-7.729,2.99
			c0.895-1.367,0.995-3.182,0.1-4.682c-1.258-2.085-3.962-2.757-6.053-1.504c-2.086,1.257-2.752,3.957-1.51,6.043
			c0.953,1.585,2.738,2.356,4.458,2.085c-1.339,1.048-3.4,3.139-5.424,6.205c0.19-1.657-0.586-3.357-2.11-4.267
			c-2.085-1.253-4.785-0.576-6.042,1.5c-1.263,2.086-0.581,4.805,1.505,6.053c1.543,0.919,3.428,0.795,4.805-0.182
			c-1.2,2.276-2.291,4.91-3.109,7.91c-0.344-1.615-1.586-2.977-3.306-3.367c-2.376-0.553-4.737,0.924-5.285,3.3
			c-0.553,2.372,0.934,4.733,3.3,5.276c1.748,0.4,3.48-0.295,4.5-1.638c-0.257,1.49-0.442,3.028-0.548,4.638
			c-0.071,1.224-0.095,2.523-0.042,3.881c-0.781-1.457-2.357-2.419-4.115-2.318c-2.428,0.128-4.295,2.199-4.166,4.628
			c0.119,2.434,2.19,4.296,4.628,4.172c1.824-0.096,3.334-1.286,3.91-2.896c1.323,11.4,7.514,26.714,25.972,44.147
			c-1.339,14.233-4.824,18.862-4.824,21.791c0,2.442,1.972,4.409,4.409,4.409h60.829h0.156h61.006c2.424,0,4.404-1.967,4.404-4.409
			c0-2.929-3.495-7.558-4.829-21.791c18.41-17.391,24.614-32.671,25.957-44.071c0.61,1.571,2.086,2.724,3.872,2.819
			c2.442,0.123,4.504-1.738,4.643-4.172c0.124-2.429-1.743-4.495-4.172-4.628c-1.724-0.096-3.275,0.823-4.057,2.229
			c0.038-1.319,0.014-2.596-0.066-3.791c-0.096-1.586-0.276-3.1-0.529-4.562c1.02,1.295,2.733,1.957,4.448,1.562
			c2.376-0.543,3.853-2.904,3.3-5.276c-0.543-2.376-2.919-3.856-5.276-3.3c-1.704,0.381-2.924,1.705-3.295,3.276
			c-0.814-2.938-1.886-5.538-3.067-7.781c1.377,0.934,3.233,1.048,4.753,0.139c2.081-1.253,2.752-3.967,1.5-6.053
			c-1.263-2.081-3.972-2.753-6.053-1.5c-1.5,0.896-2.267,2.558-2.109,4.186c-2.005-3.01-4.033-5.066-5.366-6.104
			c1.695,0.233,3.461-0.528,4.404-2.1c1.252-2.086,0.576-4.786-1.514-6.043c-2.086-1.253-4.786-0.576-6.048,1.504
			c-0.886,1.481-0.806,3.276,0.071,4.644c-2.49-1.4-5.063-2.372-7.667-2.957c1.61-0.477,2.886-1.848,3.139-3.624
			c0.333-2.405-1.343-4.639-3.757-4.981c-2.405-0.333-4.648,1.348-4.977,3.753c-0.243,1.729,0.552,3.357,1.895,4.267
			c-2.771-0.267-5.595-0.152-8.409,0.247c1.438-0.957,2.238-2.714,1.886-4.519c-0.462-2.386-2.771-3.938-5.162-3.477
			c-2.399,0.472-3.957,2.776-3.48,5.162c0.338,1.762,1.676,3.071,3.318,3.457c-2.8,0.609-5.58,1.467-8.343,2.481
			c1.129-1.21,1.534-3.015,0.876-4.657c-0.918-2.253-3.476-3.343-5.742-2.438c-2.267,0.914-3.348,3.477-2.438,5.743
			c0.667,1.624,2.167,2.643,3.814,2.733c-2.704,1.147-5.348,2.424-7.919,3.742c0.967-1.318,1.167-3.133,0.348-4.671
			c-1.139-2.162-3.814-2.967-5.962-1.824c-2.152,1.129-2.967,3.81-1.829,5.953c0.814,1.533,2.42,2.39,4.039,2.333
			c-2.458,1.324-4.824,2.667-7.082,3.929c-7.452,4.219-14.495,8.195-18.523,8.195c-4.02,0-11.071-3.977-18.523-8.195
			C1479.805,890.536,1477.419,889.198,1474.972,887.874z M1502.977,976.24v-0.009h-5.553v0.009h-50.657l0.353-2.69
			c0.181,0.029,0.371,0.043,0.571,0.043c2.429,0,4.409-1.971,4.409-4.404c0-2.243-1.671-4.086-3.833-4.367l0.353-2.681h51.795h0.157
			h51.962l0.348,2.681c-2.152,0.281-3.833,2.124-3.833,4.367c0,2.434,1.972,4.404,4.414,4.404c0.186,0,0.376-0.014,0.566-0.043
			l0.348,2.69H1502.977z M1484.063,939.659l9.766-3.428c0.515,0.695,1.129,1.305,1.834,1.823h-0.038c0,0-7.833,15.267-18.853,15.267
			c-8.362,0-8.086-4.314-12.51-5.157c1.647-0.633,2.81-2.229,2.81-4.104c0-1.485-0.738-2.8-1.871-3.6
			c1.3-2.024,2.995-3.229,4.523-3.229c2.253,0,3.843,2.476,4.366,6.795c0.01,0.2,0.167,0.348,0.362,0.376
			c0.195,0.043,0.386-0.062,0.472-0.233c3.076-6.3,2.267-9.938,1.066-11.886c-1.19-1.886-3.29-2.976-5.757-2.976
			c-1.267,0-2.534,0.29-3.667,0.843c2.348-5.058,4.376-11.21-3.6-18.452c-0.172-0.153-0.434-0.153-0.596,0
			c-7.967,7.242-5.952,13.395-3.586,18.452c-1.143-0.553-2.404-0.843-3.676-0.843c-2.472,0-4.566,1.09-5.748,2.976
			c-1.224,1.948-2.014,5.586,1.058,11.886c0.091,0.172,0.276,0.276,0.472,0.233c0.186-0.028,0.338-0.176,0.371-0.376
			c0.51-4.319,2.1-6.795,4.357-6.795c1.519,0,3.224,1.204,4.519,3.229c-1.133,0.8-1.876,2.114-1.876,3.6
			c0,1.909,1.215,3.528,2.909,4.143c-1.947,0.453-3.566,1.729-5.519,3.148c-22.795-17.319-27.914-31.896-28.139-41.162
			c-0.195-7.877,3.177-13.486,6.381-16.114c2.543-2.071,7.877-3.796,15.22-2.4c8.023,1.515,23.252,7.829,38.647,32.533l-3.705-1.305
			c-1.275,2.515-2,5.357-2,8.376C1482.057,934.298,1482.785,937.15,1484.063,939.659z M1517.081,922.907l-3.705,1.314
			c15.396-24.715,30.634-31.028,38.652-32.543c7.348-1.396,12.677,0.328,15.22,2.4c3.214,2.628,6.576,8.232,6.391,16.114
			c-0.229,9.257-5.344,23.843-28.144,41.161c-1.957-1.419-3.571-2.695-5.519-3.147c1.69-0.614,2.904-2.233,2.904-4.143
			c0-1.485-0.748-2.8-1.876-3.6c1.295-2.024,3-3.229,4.528-3.229c2.243,0,3.838,2.477,4.361,6.796
			c0.015,0.2,0.172,0.348,0.357,0.376c0.2,0.043,0.386-0.062,0.477-0.233c3.066-6.3,2.267-9.938,1.053-11.886
			c-1.182-1.886-3.276-2.976-5.748-2.976c-1.267,0-2.528,0.29-3.672,0.843c2.357-5.058,4.382-11.21-3.59-18.453
			c-0.172-0.152-0.424-0.152-0.596,0c-7.967,7.243-5.938,13.396-3.585,18.453c-1.139-0.553-2.4-0.843-3.677-0.843
			c-2.471,0-4.566,1.09-5.747,2.976c-1.22,1.947-2.015,5.586,1.062,11.886c0.091,0.172,0.267,0.276,0.477,0.233
			c0.181-0.028,0.333-0.176,0.357-0.376c0.519-4.319,2.109-6.796,4.366-6.796c1.519,0,3.224,1.205,4.515,3.229
			c-1.129,0.8-1.872,2.114-1.872,3.6c0,1.881,1.167,3.472,2.819,4.104c-4.424,0.843-4.152,5.157-12.515,5.157
			c-11.023,0-18.843-15.267-18.843-15.267h-0.047c0.699-0.515,1.313-1.124,1.833-1.828l9.767,3.433
			c1.281-2.509,2.005-5.361,2.005-8.381C1519.091,928.265,1518.357,925.422,1517.081,922.907z M1500.571,937.012
			c-3.162,0-5.729-2.562-5.729-5.729c0-3.152,2.566-5.729,5.729-5.729c3.157,0,5.724,2.576,5.724,5.729
			C1506.295,934.45,1503.729,937.012,1500.571,937.012z M1521.695,896.407c15.795-8.904,35.447-20.005,50.5-9.248
			c2.909,2.081,9.152,10.129,9.853,21.72c0.919,15.019-7.524,31.356-24.434,47.361c-2.99-0.305-5.338-1.038-7.296-1.938
			c23.091-18.058,28.362-33.796,28.605-43.981c0.199-8.31-2.914-15.909-8.334-20.333c-4.485-3.672-11.8-4.981-19.547-3.505
			c-9.314,1.767-27.305,9.195-44.529,38.909c-0.305-0.305-0.643-0.59-0.99-0.848l3.419-9.771c-2.505-1.281-5.353-1.996-8.371-1.996
			c-3.015,0-5.857,0.715-8.372,1.996l3.453,9.757c-0.362,0.262-0.695,0.543-1.015,0.861c-17.219-29.714-35.224-37.143-44.528-38.909
			c-7.758-1.477-15.072-0.162-19.558,3.505c-5.409,4.424-8.528,12.028-8.328,20.333c0.247,10.19,5.515,25.924,28.595,43.981
			c-1.947,0.899-4.305,1.633-7.295,1.938c-16.904-16.005-25.348-32.343-24.438-47.361c0.709-11.591,6.947-19.639,9.861-21.72
			c15.066-10.747,34.719,0.344,50.505,9.248c8.776,4.957,15.71,8.871,21.119,8.871S1512.914,901.364,1521.695,896.407z"/>
		<circle fill="#C09B57" cx="1489.995" cy="969.188" r="4.405"/>
		<path fill="#C09B57" d="M1506.295,846.669c0,3.157-2.566,5.729-5.724,5.729c-3.162,0-5.729-2.571-5.729-5.729
			c0-2.138,1.229-3.938,2.972-4.919h-15.066c-0.434,1.571-0.691,3.214-0.691,4.919c0,3.02,0.725,5.857,2,8.377l9.768-3.434
			c0.504,0.69,1.119,1.3,1.8,1.795l-3.429,9.781c2.51,1.275,5.357,1.985,8.371,1.985c3.02,0,5.862-0.71,8.371-1.985l-3.414-9.776
			c0.686-0.495,1.286-1.109,1.791-1.8l9.767,3.434c1.281-2.515,2.005-5.357,2.005-8.377c0-1.704-0.258-3.353-0.69-4.919h-15.067
			C1505.066,842.731,1506.295,844.531,1506.295,846.669z"/>
		<path fill="#C09B57" d="M1500.571,896.031c7.19,0,13.134-5.386,13.995-12.338h-27.985
			C1487.447,890.646,1493.381,896.031,1500.571,896.031z"/>
		<path fill="#C09B57" d="M1657.49,1020.545c24.233,0,32.947-12.476,32.947-18.852c0-6.639-3.442-20.867-36.5-20.867
			c-9.729,0-25.552,1.796-45.742,10.891c-4.319-2.724-8.891-5.733-13.776-9.033c-0.704-0.448-1.438-0.7-2.286-0.7
			c-2.232,0-4.023,1.805-4.023,4.023c0,1.367,0.672,2.563,1.7,3.286c2.771,1.99,5.952,4.319,9.452,6.8
			c-3.91,2.063-7.952,4.396-12.124,7.029c-4.085-3.058-8.224-6.225-12.399-9.52c-0.738-0.581-1.725-0.962-2.771-0.962
			c-2.434,0-4.41,1.977-4.41,4.409c0,1.301,0.533,2.52,1.467,3.286c3.391,2.795,6.753,5.49,10.109,8.119
			c-23.266,16.28-49.99,41.929-78.562,82.128c-28.566-40.199-55.3-65.848-78.552-82.128c3.348-2.629,6.719-5.324,10.104-8.119
			c0.942-0.767,1.462-1.985,1.462-3.286c0-2.433-1.972-4.409-4.404-4.409c-1.043,0-2.029,0.381-2.771,0.962
			c-4.167,3.3-8.305,6.462-12.4,9.52c-4.177-2.634-8.219-4.967-12.129-7.029c3.505-2.48,6.682-4.81,9.457-6.8
			c1.033-0.724,1.71-1.919,1.71-3.286c0-2.219-1.805-4.023-4.033-4.023c-0.853,0-1.576,0.257-2.281,0.7
			c-4.886,3.3-9.467,6.31-13.786,9.033c-20.189-9.096-36.019-10.891-45.737-10.891c-33.063,0-36.495,14.229-36.495,20.867
			c0,6.376,8.719,18.852,32.942,18.852c17.562,0,35.219-9.19,49.462-18.48c4.048,2.243,8.066,4.738,12.048,7.5
			c-28.528,20.328-54.867,34.595-78.715,44.138c-31.466-45.3-67.28-77.028-106.614-77.028c-19.391,0-57.719,11.02-57.719,53.329
			c0,40.267,59.896,69.876,147.162,41.295c1.238,2.129,2.476,4.285,3.705,6.467c-24.043,5.614-42.905,23.323-42.905,47.871
			c0,48.134,33.495,58.614,63.899,58.614c2.915,0,5.286-2.362,5.286-5.285c0-2.92-2.371-5.286-5.286-5.286
			c-25.166,0-49.356-12.786-49.356-47.152c0-23.49,20.848-34.795,34.79-37.033c19.662,36.895,37.563,79.429,52.496,119.447
			c-7.938,44.396-20.182,86.905-36.329,120.238c-20.224-11.134-40.19-18.886-58.015-18.886c-33.557,0-67.633,24.591-62.576,57.3
			c3.953,25.533,24.41,43.824,50.243,43.186c37.19-0.919,65.162-24.356,86.276-57.976c28.138,17.247,56.195,38.038,79.186,51.771
			c19.3,11.519,39.348,22.89,59.295,32.919c-6.657,3.048-13.328,5.924-19.962,8.571c-28.856-12.995-55.252-23.829-72.143-23.829
			c-16.152,0-33.405,6.539-35.167,22.791c-1.995,18.252,14.01,27.891,38.253,27.447c20.328-0.366,43.438-6.409,67.667-15.828
			c6.313,2.924,12.818,5.942,19.399,8.962c-30.109,13.3-59.243,24.495-80.01,24.495c-2.929,0-5.285,2.371-5.285,5.285
			c0,2.924,2.381,5.296,5.305,5.296c22.634,0,57.924-13.934,92.528-29.414c34.609,15.48,69.891,29.414,92.529,29.414
			c2.928,0,5.313-2.372,5.313-5.296c0-2.914-2.366-5.285-5.29-5.285c-20.776,0-49.905-11.195-80.02-24.495
			c6.596-3.02,13.081-6.038,19.41-8.962c24.219,9.424,47.328,15.462,67.657,15.828c24.237,0.448,40.257-9.195,38.267-27.447
			c-1.771-16.253-19.02-22.791-35.186-22.791c-16.896,0-43.281,10.829-72.139,23.829c-6.633-2.647-13.305-5.523-19.962-8.571
			c19.952-10.029,39.986-21.4,59.291-32.919c22.985-13.733,51.052-34.524,79.19-51.771c21.109,33.619,49.081,57.052,86.285,57.976
			c25.819,0.639,46.281-17.652,50.233-43.186c5.058-32.709-29.028-57.3-62.581-57.3c-17.818,0-37.79,7.752-58.014,18.886
			c-16.152-33.333-28.4-75.843-36.334-120.238c14.938-40.019,32.834-82.553,52.505-119.447
			c13.934,2.242,34.791,13.548,34.791,37.033c0,34.371-24.2,47.152-49.353,47.152c-2.924,0-5.291,2.366-5.291,5.286
			c0,2.923,2.367,5.285,5.291,5.285c30.404,0,63.886-10.476,63.886-58.614c0-24.543-18.853-42.257-42.896-47.871
			c1.229-2.182,2.467-4.338,3.695-6.467c87.281,28.581,147.181-1.028,147.181-41.295c0-42.31-38.329-53.329-57.738-53.329
			c-39.328,0-75.138,31.729-106.609,77.028c-23.848-9.543-50.186-23.81-78.714-44.138c3.99-2.762,8-5.257,12.043-7.5
			C1622.276,1011.354,1639.934,1020.545,1657.49,1020.545z M1653.938,989.198c16.963,0,26.619,4.881,26.619,12.262
			c0,6.886-13.785,9.638-23.09,9.638c-11.891,0-24.143-4.562-39.99-13.747C1629.4,992.079,1641.571,989.198,1653.938,989.198z
			 M1343.686,1011.098c-9.318,0-23.095-2.752-23.095-9.638c0-7.381,9.657-12.262,26.614-12.262c12.366,0,24.543,2.881,36.462,8.156
			C1367.824,1006.536,1355.562,1011.098,1343.686,1011.098z M1178.857,1030.003c0-23.353,15.428-40.977,40.98-40.977
			c28.686,0,57.4,29.942,83.7,72.672C1224.929,1084.945,1178.857,1054.412,1178.857,1030.003z M1264.8,1396.669
			c-30.848,3.076-54.319-45.967-14.542-68.747c20.938-12,49.562-3.429,79.576,12.433
			C1312.147,1372.631,1290.314,1394.117,1264.8,1396.669z M1397.886,1463.217c-9.881,0-19.157-6.429-19.386-16.3
			c-0.252-10.524,10.624-16.571,21.152-16.762c9.748-0.152,31.195,9.104,56.985,20.942
			C1435.581,1458.55,1415.362,1463.217,1397.886,1463.217z M1601.495,1430.155c10.524,0.186,21.4,6.237,21.152,16.762
			c-0.238,9.871-9.519,16.3-19.396,16.3c-17.476,0-37.69-4.662-58.752-12.114C1570.285,1439.26,1591.733,1430.003,1601.495,1430.155
			z M1750.896,1327.927c39.776,22.775,16.313,71.823-14.553,68.747c-25.515-2.553-47.338-24.038-65.019-56.31
			C1701.338,1324.498,1729.943,1315.927,1750.896,1327.927z M1781.3,989.026c25.558,0,40.981,17.624,40.981,40.977
			c0,24.409-46.053,54.942-124.677,31.69C1723.914,1018.969,1752.638,989.026,1781.3,989.026z M1532.633,1198.574
			c-10.994,19.967-21.757,42.729-32.057,68.552c-10.3-25.828-21.066-48.585-32.048-68.552c9.434-23.271,20.195-46.614,32.048-68.839
			C1512.424,1151.96,1523.186,1175.308,1532.633,1198.574z M1332.447,1062.574c25.225-10.705,52.291-26.124,80.553-47.224
			c27.581,21.609,53.172,54.833,75.533,92.881c-11.924,18.204-24.119,38.99-36.48,62.699
			c-39.119-60.542-79.486-88.176-110.463-93.909C1338.586,1072.098,1335.543,1067.27,1332.447,1062.574z M1438.229,1198.607
			c-6.519,13.562-13.057,27.962-19.624,43.247c-4.838-12.6-9.99-25.671-15.442-38.957c3.781-19.742,6.595-38.19,8.729-53.823
			C1421.643,1163.983,1430.391,1180.812,1438.229,1198.607z M1351.629,1094.169c10.914,4.182,21.09,10.791,30.562,19.291
			c-0.434,11.843-1.19,23.928-2.305,36.128C1371.038,1130.588,1361.6,1111.864,1351.629,1094.169z M1519.533,1451.321
			c-6.271,2.867-12.614,5.786-18.957,8.662c-6.343-2.876-12.69-5.8-18.952-8.662c6.276-2.695,12.6-5.586,18.952-8.628
			C1506.924,1445.735,1513.248,1448.631,1519.533,1451.321z M1643.505,1342.436c-28.391,18.329-55.919,40.229-77.267,53.52
			c-19.729,12.285-42.429,25.295-65.667,36.548c-23.233-11.253-45.947-24.263-65.662-36.548
			c-21.356-13.291-48.876-35.195-77.271-53.52c13.687-24.59,24.195-53.457,32.3-82.519c13.648,40.828,22.877,73.861,26.02,87.395
			c0.657,2.844,2.376,5.291,5.285,5.291c2.924,0,4.967-2.396,5.305-5.291c3.377-29.08,12.881-67.895,27.148-109.247
			c29.361,83.729,41.128,172.324,41.595,176.233c0.333,2.9,2.391,5.29,5.305,5.29c2.924,0,4.929-2.39,5.267-5.29
			c0.457-3.905,12.229-92.505,41.586-176.233c14.267,41.357,23.762,80.167,27.143,109.247c0.334,2.896,2.377,5.291,5.301,5.291
			c2.928,0,4.633-2.452,5.285-5.291c3.139-13.533,12.386-46.562,26.028-87.395
			C1619.328,1288.983,1629.824,1317.846,1643.505,1342.436z M1562.929,1198.607c7.828-17.796,16.581-34.624,26.319-49.528
			c2.138,15.633,4.961,34.076,8.742,53.823c-5.462,13.286-10.609,26.353-15.442,38.957
			C1575.98,1226.569,1569.434,1212.169,1562.929,1198.607z M1621.257,1149.583c-1.1-12.199-1.876-24.285-2.305-36.123
			c9.485-8.505,19.657-15.114,30.571-19.296C1639.543,1111.864,1630.109,1130.588,1621.257,1149.583z M1668.7,1062.574
			c-3.096,4.695-6.138,9.523-9.147,14.447c-30.972,5.733-71.338,33.367-110.462,93.924c-12.353-23.724-24.548-44.51-36.477-62.714
			c22.357-38.048,47.957-71.271,75.528-92.881C1616.404,1036.45,1643.48,1051.869,1668.7,1062.574z"/>
		<circle fill="#C09B57" cx="1468.843" cy="969.188" r="4.405"/>
		<path fill="#C09B57" d="M1502.338,867.936v12.229h12.229C1513.776,873.783,1508.719,868.731,1502.338,867.936z"/>
		<path fill="#C09B57" d="M1486.586,880.164h12.229v-12.229C1492.434,868.731,1487.381,873.783,1486.586,880.164z"/>
	</g>
</g>
</svg>
